<svg xmlns="http://www.w3.org/2000/svg" viewBox="0 0 32 32">
  <rect width="32" height="32" rx="8" fill="#f4ecd8"/>
  <path d="M16 28c0-5 .8-8.4 3-10" stroke="#2d4a2e" stroke-width="1.8" stroke-linecap="round" fill="none"/>
  <path d="M9.5 9.4c1.1.8 1.8 2.2 2.3 3.7-2 .4-3.5.4-4.8-.3-1.2-.6-2.3-1.9-3-4.2 2.8-.5 4.4 0 5.5.8z" fill="#2d4a2e"/>
  <path d="M14.1 6a7 7 0 0 0-1.1 4c1.9-.1 3.3-.6 4.3-1.4 1-1 1.6-2.3 1.7-4.6-2.7.1-4 1-4.9 2z" fill="#87a878"/>
  <path d="M10 28h12" stroke="#2d4a2e" stroke-width="1.8" stroke-linecap="round"/>
</svg>
